# AST/ASF file generated using VICON BodyLanguage
# -----------------------------------------------
:version 1.10
:name VICON
:units
  mass 1.0
  length 0.45
  angle deg
:documentation
   .ast/.asf automatically generated from VICON data using
   VICON BodyBuilder and BodyLanguage model FoxedUp or BRILLIANT.MOD
:root
   order TX TY TZ RX RY RZ
   axis XYZ
   position 0 0 0  
   orientation 0 0 0 
:bonedata
  begin
     id 1 
     name lhipjoint
     direction 0.623415 -0.642378 0.445763 
     length 2.49859 
     axis 0 0 0  XYZ
  end
  begin
     id 2 
     name lfemur
     direction 0.34202 -0.939693 0  
     length 6.69689  
     axis 0 0 20  XYZ
    dof rx ry rz
    limits (-160.0 20.0)
           (-70.0 70.0)
           (-60.0 70.0)
  end
  begin
     id 3 
     name ltibia
     direction 0.34202 -0.939693 0   
     length 7.37574   
     axis 0 0 20   XYZ
    dof rx
    limits (-10.0 170.0)
  end
  begin
     id 4 
     name lfoot
     direction 0.084323 -0.231675 0.969132   
     length 2.09111   
     axis -90 7.62852e-016 20   XYZ
    dof rx rz
    limits (-45.0 90.0)
           (-70.0 20.0)
  end
  begin
     id 5 
     name ltoes
     direction 1.5357e-011 -4.21957e-011 1   
     length 1.04989   
     axis -90 7.62852e-016 20   XYZ
    dof rx
    limits (-90.0 20.0)
  end
  begin
     id 6 
     name rhipjoint
     direction -0.605402 -0.653903 0.45376   
     length 2.45455  
     axis 0 0 0  XYZ 
  end
  begin
     id 7 
     name rfemur
     direction -0.34202 -0.939693 0   
     length 6.64523   
     axis 0 0 -20   XYZ
    dof rx ry rz
    limits (-160.0 20.0)
           (-70.0 70.0)
           (-70.0 60.0)
  end
  begin
     id 8 
     name rtibia
     direction -0.34202 -0.939693 0   
     length 7.3339   
     axis 0 0 -20   XYZ
    dof rx
    limits (-10.0 170.0)
 end
 begin
     id 9 
     name rfoot
     direction -0.120854 -0.332043 0.93549   
     length 2.23135  
     axis -90 -7.62852e-016 -20   XYZ
    dof rx rz
    limits (-45.0 90.0)
           (-20.0 70.0)
  end
  begin
     id 10 
     name rtoes
     direction -1.53563e-011 -4.21914e-011 1   
     length 1.10614   
     axis -90 -7.62852e-016 -20   XYZ
    dof rx
    limits (-90.0 20.0)
  end
  begin
     id 11 
     name lowerback
     direction 0.0319682 0.998615 -0.0417941   
     length 2.02718   
     axis 0 0 0   XYZ
    dof rx ry rz
    limits (-20.0 45.0)
           (-30.0 30.0)
           (-30.0 30.0)
  end
  begin
     id 12 
     name upperback
     direction 7.63181e-005 0.995808 0.0914691   
     length 1.97539   
     axis 0 0 0   XYZ
    dof rx ry rz
    limits (-20.0 45.0)
           (-30.0 30.0)
           (-30.0 30.0)
  end
  begin
     id 13 
     name thorax
     direction -0.016423 0.993627 0.111514   
     length 2.00349   
     axis 0 0 0   XYZ
    dof rx ry rz
    limits (-20.0 45.0)
           (-30.0 30.0)
           (-30.0 30.0)
  end
  begin
     id 14 
     name lowerneck
     direction -0.174763 0.981668 -0.0760716   
     length 1.71436   
     axis 0 0 0   XYZ
    dof rx ry rz
    limits (-20.0 45.0)
           (-30.0 30.0)
           (-30.0 30.0)
  end
  begin
     id 15 
     name upperneck
     direction 0.345458 0.934587 -0.0848868   
     length 1.72805   
     axis 0 0 0   XYZ
    dof rx ry rz
    limits (-20.0 45.0)
           (-30.0 30.0)
           (-30.0 30.0)
  end
  begin
     id 16
     name head
     direction 0.13001 0.989848 -0.0574291  
     length 1.767  
     axis 0 0 0   XYZ
    dof rx ry rz
    limits (-20.0 45.0)
           (-30.0 30.0)
           (-30.0 30.0)
  end
  begin
     id 17 
     name lclavicle
     direction 0.952951 0.290122 0.0878234  
     length 3.54654  
     axis 0 0 0   XYZ
    dof ry rz
    limits (-20.0 10.0)
           (0.0 20.0)
  end
  begin
     id 18 
     name lhumerus
     direction 1 -4.48957e-011 -4.56525e-028   
     length 5.19807   
     axis 180 -30 -90   XYZ
    dof rx ry rz
    limits (-60.0 90.0)
           (-90.0 90.0)
           (-90.0 90.0)
  end
  begin
     id 19
     name lradius
     direction 1 -4.48979e-011 -2.0317e-027   
     length 3.0937   
     axis 180 -30 -90   XYZ
    dof rx
    limits (-10.0 170.0)
  end
  begin
     id 20
     name lwrist
     direction 1 -4.48953e-011 -3.05809e-027   
     length 1.54685   
     axis 8.48514e-016 90 90   XYZ
    dof ry
    limits (-180.0 0.0)
 end
  begin
     id 21 
     name lhand
     direction 1 -4.48952e-011 -6.11639e-027   
     length 0.672632   
     axis 3.9013e-015 90 90   XYZ
    dof rx rz
    limits (-90.0 90.0)
           (-45.0 45.0)
  end
  begin
     id 22 
     name lfingers
     direction 1 -4.48925e-011 -1.22426e-026   
     length 0.542293   
     axis 7.80276e-015 90 90   XYZ
    dof rx
    limits (0.0 90.0)
  end
  begin
     id 23
     name lthumb
     direction 0.707107 -6.3486e-011 0.707107   
     length 0.778628   
     axis -90 45 5.37419e-014   XYZ
    dof rx rz
    limits (-45.0 45.0)
           (-45.0 45.0)
  end
  begin
     id 24 
     name rclavicle
     direction -0.960732 0.273675 -0.0457849   
     length 3.52079  
     axis 0 0 0   XYZ 
    dof ry rz
    limits (-10.0 20.0)
           (-20.0 0.0)
  end
  begin
     id 25 
     name rhumerus
     direction -1 -4.48976e-011 -1.63613e-027  
     length 5.45222   
     axis 180 30 90   XYZ
    dof rx ry rz
    limits (-90.0 60.0)
           (-90.0 90.0)
           (-90.0 90.0)
  end
  begin
     id 26 
     name rradius
     direction -1 -4.48957e-011 -7.00033e-028   
     length 3.01284   
     axis 180 30 90   XYZ
    dof rx
    limits (-10.0 170.0)
  end
  begin
     id 27 
     name rwrist
     direction -1 -4.48983e-011 -3.05543e-027   
     length 1.50642   
     axis 8.48514e-016 -90 -90   XYZ
    dof ry
    limits (-180.0 0.0)
  end
  begin
     id 28
     name rhand
     direction -1 -4.48984e-011 -6.11072e-027   
     length 0.622296   
     axis 3.9013e-015 -90 -90   XYZ
    dof rx rz
    limits (-90.0 90.0)
           (-45.0 45.0)
  end
  begin
     id 29
     name rfingers
     direction -1 -4.48865e-011 -1.22637e-026   
     length 0.501711   
     axis 7.80276e-015 -90 -90   XYZ
    dof rx
    limits (0.0 90.0)
  end
  begin
     id 30
     name rthumb
     direction -0.707107 -6.34932e-011 0.707107   
     length 0.72036   
     axis -90 -45 -5.37419e-014   XYZ
    dof rx rz
    limits (-45.0 45.0)
           (-45.0 45.0)
  end
:hierarchy
  begin
    root lhipjoint rhipjoint lowerback
    lhipjoint lfemur
    lfemur ltibia
    ltibia lfoot
    lfoot ltoes
    rhipjoint rfemur
    rfemur rtibia
    rtibia rfoot
    rfoot rtoes
    lowerback upperback
    upperback thorax
    thorax lowerneck lclavicle rclavicle
    lowerneck upperneck
    upperneck head
    lclavicle lhumerus
    lhumerus lradius
    lradius lwrist
    lwrist lhand lthumb
    lhand lfingers
    rclavicle rhumerus
    rhumerus rradius
    rradius rwrist
    rwrist rhand rthumb
    rhand rfingers
  end

#!OML:ASF H:\Not Pregnant\Project 1\Capture day 1\Session 1\non-pregnant.ASF
:FULLY-SPECIFIED
:DEGREES
270
root 8.71717 16.6405 28.1187 103.081 -62.064 -96.2418
lowerback 15.4994 9.7606 -4.384
upperback -2.57312 12.5507 2.73117
thorax -13.0974 6.29873 1.97357
lowerneck 12.7218 -13.5245 -21.0008
upperneck -23.5258 -20.4784 54.5718
head 2.14835 -15.601 27.6468
rclavicle 7.71285e-014 -9.54166e-015
rhumerus -27.9691 11.2633 -97.8871
rradius 17.7773
rwrist 40.1468
rhand 5.87636 -6.89461
rfingers 7.12502
rthumb 31.2055 -34.2567
lclavicle 7.71285e-014 -9.54166e-015
lhumerus -32.7046 -12.8793 63.1416
lradius 45.6497
lwrist 39.7521
lhand -12.8813 -7.73413
lfingers 7.12502
lthumb 13.2077 21.8275
rfemur -156.062 -42.6604 96.4865
rtibia 157.988
rfoot 41.4942 17.279
rtoes -12.7062
lfemur -13.4048 13.9984 4.34511
ltibia 17.8715
lfoot -7.18804 -9.92352
ltoes 5.70495
271
root 8.70809 16.6379 28.1241 103.394 -62.3072 -96.5577
lowerback 15.3686 9.74565 -4.50161
upperback -2.62558 12.5119 2.69498
thorax -13.0958 6.29129 2.02271
lowerneck 12.8092 -13.5111 -21.1093
upperneck -23.432 -20.4765 54.4241
head 2.12666 -15.5589 27.5383
rclavicle -1.145e-013 -3.81667e-014
rhumerus -28.0292 11.2313 -98.033
rradius 17.7556
rwrist 40.1627
rhand 5.98565 -6.50861
rfingers 7.12502
rthumb 31.3096 -33.8506
lclavicle -1.145e-013 -3.81667e-014
lhumerus -32.6497 -12.6747 62.8432
lradius 45.615
lwrist 39.5684
lhand -12.1155 -7.73813
lfingers 7.12502
lthumb 13.9457 21.7742
rfemur -156.264 -42.9794 96.8349
rtibia 158.127
rfoot 41.11 17.1936
rtoes -13.0127
lfemur -13.2743 13.4118 4.04154
ltibia 17.78
lfoot -7.42502 -9.13902
ltoes 4.78495
272
root 8.70017 16.6347 28.13 103.757 -62.5489 -96.941
lowerback 15.269 9.73411 -4.60215
upperback -2.67337 12.479 2.6552
thorax -13.1026 6.28433 2.05289
lowerneck 12.8759 -13.4936 -21.2187
upperneck -23.3218 -20.475 54.2836
head 2.11687 -15.5163 27.4339
rclavicle 4.45278e-014 4.77083e-014
rhumerus -28.1014 11.2839 -98.2096
rradius 17.7399
rwrist 40.0937
rhand 6.12948 -6.06592
rfingers 7.12502
rthumb 31.4467 -33.3813
lclavicle 4.45278e-014 4.77083e-014
lhumerus -32.5605 -12.4456 62.4796
lradius 45.552
lwrist 39.3742
lhand -11.1795 -7.74198
lfingers 7.12502
lthumb 14.8476 21.706
rfemur -156.371 -43.2803 97.1258
rtibia 158.263
rfoot 40.7381 17.1089
rtoes -13.1358
lfemur -13.1273 12.7471 3.73701
ltibia 17.7079
lfoot -7.6669 -8.23835
ltoes 3.87414
273
root 8.69327 16.631 28.1359 104.17 -62.7676 -97.3887
lowerback 15.1915 9.72745 -4.6684
upperback -2.71849 12.4578 2.61322
thorax -13.112 6.27964 2.05624
lowerneck 12.9287 -13.4709 -21.3241
upperneck -23.202 -20.4722 54.156
head 2.11573 -15.4753 27.3423
rclavicle 1.03368e-013 -6.36111e-015
rhumerus -28.1902 11.4283 -98.4243
rradius 17.7323
rwrist 39.972
rhand 6.29878 -5.58059
rfingers 7.12502
rthumb 31.608 -32.8644
lclavicle 1.03368e-013 -6.36111e-015
lhumerus -32.4273 -12.2013 62.0398
lradius 45.4617
lwrist 39.176
lhand -10.0853 -7.75996
lfingers 7.12502
lthumb 15.9015 21.6072
rfemur -156.358 -43.5571 97.3544
rtibia 158.392
rfoot 40.3844 17.0608
rtoes -13.0516
lfemur -12.9733 12.0275 3.45403
ltibia 17.665
lfoot -7.90482 -7.2435
ltoes 3.05134
274
root 8.68712 16.6266 28.1414 104.631 -62.9464 -97.8964
lowerback 15.1302 9.72743 -4.68466
upperback -2.75978 12.4535 2.56754
thorax -13.1156 6.27852 2.02259
lowerneck 12.9621 -13.447 -21.4138
upperneck -23.0767 -20.4693 54.0455
head 2.1227 -15.4376 27.2603
rclavicle -9.46215e-014 2.8625e-014
rhumerus -28.3083 11.7226 -98.7064
rradius 17.7571
rwrist 39.7681
rhand 6.46673 -5.08878
rfingers 7.12502
rthumb 31.7679 -32.341
lclavicle -9.46215e-014 2.8625e-014
lhumerus -32.2281 -11.9491 61.5053
lradius 45.3414
lwrist 38.9831
lhand -8.83151 -7.79096
lfingers 7.12502
lthumb 17.1086 21.4758
rfemur -156.147 -43.7733 97.5243
rtibia 158.508
rfoot 40.0048 17.0361
rtoes -12.9151
lfemur -12.8182 11.2873 3.21049
ltibia 17.6575
lfoot -8.12944 -6.19734
ltoes 2.3789
275
root 8.68159 16.6218 28.1463 105.138 -63.0849 -98.4601
lowerback 15.0801 9.73428 -4.65783
upperback -2.79753 12.4661 2.52358
thorax -13.1139 6.28185 1.96209
lowerneck 12.9832 -13.421 -21.4956
upperneck -22.9491 -20.4662 53.9495
head 2.13602 -15.4028 27.19
rclavicle 1.53462e-013 4.77083e-014
rhumerus -28.4767 12.2387 -99.0821
rradius 17.8397
rwrist 39.438
rhand 6.60739 -4.63551
rfingers 7.12502
rthumb 31.9019 -31.8611
lclavicle 1.53462e-013 4.77083e-014
lhumerus -31.9639 -11.6712 60.8777
lradius 45.1884
lwrist 38.7768
lhand -7.4388 -7.84113
lfingers 7.12502
lthumb 18.4488 21.304
rfemur -155.772 -43.9427 97.6307
rtibia 158.609
rfoot 39.6574 17.0344
rtoes -12.6408
lfemur -12.6656 10.5525 3.00515
ltibia 17.6859
lfoot -8.33746 -5.13273
ltoes 1.84997
276
root 8.67651 16.6168 28.1504 105.691 -63.1812 -99.0734
lowerback 15.0329 9.74787 -4.59194
upperback -2.83202 12.4952 2.48184
thorax -13.1031 6.28993 1.8789
lowerneck 12.9872 -13.3946 -21.5708
upperneck -22.8178 -20.4653 53.8684
head 2.15868 -15.3715 27.1285
rclavicle -2.22639e-014 -5.725e-014
rhumerus -28.7069 13.0122 -99.5687
rradius 18.0009
rwrist 38.9509
rhand 6.6898 -4.27356
rfingers 7.12502
rthumb 31.9804 -31.4834
lclavicle -2.22639e-014 -5.725e-014
lhumerus -31.6262 -11.3635 60.153
lradius 45.0005
lwrist 38.5447
lhand -5.95161 -7.91212
lfingers 7.12502
lthumb 19.8789 21.0912
rfemur -155.257 -44.0529 97.6578
rtibia 158.694
rfoot 39.3824 17.0408
rtoes -12.1713
lfemur -12.5209 9.8669 2.83833
ltibia 17.7446
lfoot -8.5247 -4.09737
ltoes 1.44148
277
root 8.67182 16.6117 28.1538 106.293 -63.2526 -99.736
lowerback 14.9829 9.76604 -4.50738
upperback -2.86351 12.5337 2.43965
thorax -13.0836 6.30106 1.78371
lowerneck 12.9755 -13.367 -21.6414
upperneck -22.6813 -20.4649 53.7979
head 2.18889 -15.3418 27.0731
rclavicle 7.95139e-016 3.18055e-015
rhumerus -28.9768 13.9567 -100.143
rradius 18.2157
rwrist 38.4047
rhand 6.69373 -4.03338
rfingers 7.12502
rthumb 31.9841 -31.2425
lclavicle 7.95139e-016 3.18055e-015
lhumerus -31.2204 -11.0125 59.3265
lradius 44.7866
lwrist 38.2857
lhand -4.4284 -7.98588
lfingers 7.12502
lthumb 21.3425 20.8588
rfemur -154.663 -44.1056 97.5932
rtibia 158.77
rfoot 39.1977 17.041
rtoes -11.4349
lfemur -12.3808 9.25269 2.68975
ltibia 17.8155
lfoot -8.68288 -3.12569
ltoes 1.13621
278
root 8.66746 16.6066 28.1567 106.939 -63.3286 -100.444
lowerback 14.9329 9.78638 -4.43444
upperback -2.88904 12.5721 2.39367
thorax -13.0588 6.31268 1.69122
lowerneck 12.9456 -13.3361 -21.7169
upperneck -22.5381 -20.4644 53.7363
head 2.22872 -15.3122 27.0253
rclavicle 8.98507e-014 -3.18055e-015
rhumerus -29.2671 15.0202 -100.78
rradius 18.4635
rwrist 37.8494
rhand 6.60666 -3.92786
rfingers 7.12502
rthumb 31.9012 -31.1536
lclavicle 8.98507e-014 -3.18055e-015
lhumerus -30.7534 -10.6096 58.4013
lradius 44.5564
lwrist 38.0221
lhand -2.91292 -8.04189
lfingers 7.12502
lthumb 22.7975 20.6309
rfemur -154.085 -44.1248 97.4384
rtibia 158.848
rfoot 39.0966 17.0269
rtoes -10.4473
lfemur -12.2401 8.71962 2.52636
ltibia 17.8848
lfoot -8.8095 -2.23772
ltoes 0.906352
279
root 8.66336 16.6021 28.1589 107.617 -63.414 -101.19
lowerback 14.8882 9.80835 -4.37714
upperback -2.90937 12.6082 2.34076
thorax -13.0325 6.32385 1.59986
lowerneck 12.9045 -13.3013 -21.792
upperneck -22.3906 -20.4622 53.6847
head 2.27447 -15.2833 26.988
rclavicle 4.05521e-014 6.36111e-015
rhumerus -29.5485 16.0661 -101.425
rradius 18.7062
rwrist 37.3957
rhand 6.44385 -3.89177
rfingers 7.12502
rthumb 31.7462 -31.1483
lclavicle 4.05521e-014 6.36111e-015
lhumerus -30.2312 -10.1681 57.3722
lradius 44.3283
lwrist 37.7853
lhand -1.48328 -8.06296
lfingers 7.12502
lthumb 24.1689 20.4343
rfemur -153.613 -44.1751 97.2254
rtibia 158.936
rfoot 39.0568 17.0218
rtoes -9.28065
lfemur -12.0892 8.28788 2.34515
ltibia 17.9402
lfoot -8.90429 -1.46287
ltoes 0.747362
280
root 8.65945 16.5976 28.1606 108.308 -63.51 -101.961
lowerback 14.854 9.82782 -4.33147
upperback -2.92503 12.6369 2.27922
thorax -13.0066 6.33167 1.50634
lowerneck 12.8559 -13.2597 -21.8671
upperneck -22.2355 -20.456 53.6428
head 2.32512 -15.2544 26.9644
rclavicle -5.96354e-014 3.81667e-014
rhumerus -29.8082 17.0411 -102.049
rradius 18.9303
rwrist 37.0553
rhand 6.25747 -3.88145
rfingers 7.12502
rthumb 31.5686 -31.173
lclavicle -5.96354e-014 3.81667e-014
lhumerus -29.6675 -9.6938 56.2409
lradius 44.1202
lwrist 37.5989
lhand -0.192066 -8.02514
lfingers 7.12502
lthumb 25.4064 20.3019
rfemur -153.194 -44.2355 96.9889
rtibia 159.034
rfoot 38.9187 16.9789
rtoes -8.19693
lfemur -11.9194 7.95798 2.14942
ltibia 17.9699
lfoot -8.96963 -0.819535
ltoes 0.715751
281
root 8.65569 16.593 28.1617 109.005 -63.6255 -102.745
lowerback 14.8273 9.84174 -4.31724
upperback -2.93561 12.6518 2.21947
thorax -12.9858 6.33524 1.43425
lowerneck 12.8069 -13.2075 -21.9637
upperneck -22.0698 -20.4461 53.6053
head 2.38271 -15.2237 26.9591
rclavicle 4.77083e-015 -6.04305e-014
rhumerus -30.0411 17.9314 -102.622
rradius 19.1145
rwrist 36.814
rhand 6.06493 -3.88075
rfingers 7.12502
rthumb 31.3852 -31.2081
lclavicle 4.77083e-015 -6.04305e-014
lhumerus -29.093 -9.19498 55.0308
lradius 43.9523
lwrist 37.4897
lhand 0.86048 -7.9371
lfingers 7.12502
lthumb 26.4143 20.2426
rfemur -152.792 -44.2757 96.738
rtibia 159.138
rfoot 38.6025 16.8586
rtoes -7.36608
lfemur -11.7347 7.73207 1.93125
ltibia 17.9738
lfoot -9.01269 -0.313865
ltoes 0.792483
282
root 8.65199 16.5883 28.1618 109.703 -63.7694 -103.54
lowerback 14.8085 9.84981 -4.34524
upperback -2.9409 12.6499 2.1564
thorax -12.9709 6.33358 1.38444
lowerneck 12.7511 -13.1511 -22.0668
upperneck -21.8929 -20.4352 53.5674
head 2.44547 -15.1915 26.9559
rclavicle 3.81667e-014 6.04305e-014
rhumerus -30.2443 18.7506 -103.153
rradius 19.2635
rwrist 36.5698
rhand 5.93839 -3.96085
rfingers 7.12502
rthumb 31.2646 -31.3116
lclavicle 3.81667e-014 6.04305e-014
lhumerus -28.5123 -8.6873 53.7435
lradius 43.8373
lwrist 37.4762
lhand 1.62222 -7.79961
lfingers 7.12502
lthumb 27.1432 20.2685
rfemur -152.392 -44.2969 96.4891
rtibia 159.248
rfoot 38.0985 16.6678
rtoes -6.91996
lfemur -11.5372 7.60236 1.68443
ltibia 17.9562
lfoot -9.0416 0.0572127
ltoes 0.952889
283
root 8.64844 16.5833 28.1614 110.376 -63.9288 -104.315
lowerback 14.8018 9.84639 -4.39013
upperback -2.94498 12.6286 2.09212
thorax -12.9638 6.32374 1.34579
lowerneck 12.6925 -13.0895 -22.174
upperneck -21.7041 -20.4189 53.5224
head 2.508 -15.1544 26.9506
rclavicle 7.07673e-014 -3.18055e-015
rhumerus -30.4423 19.5598 -103.676
rradius 19.4099
rwrist 36.217
rhand 5.89792 -4.125
rfingers 7.12502
rthumb 31.2261 -31.4831
lclavicle 7.07673e-014 -3.18055e-015
lhumerus -27.9363 -8.20496 52.3849
lradius 43.7875
lwrist 37.5986
lhand 2.02633 -7.61997
lfingers 7.12502
lthumb 27.5298 20.3872
rfemur -151.963 -44.2901 96.2711
rtibia 159.352
rfoot 37.4181 16.4133
rtoes -6.79118
lfemur -11.3363 7.55054 1.42536
ltibia 17.9215
lfoot -9.06082 0.310015
ltoes 1.15578
284
root 8.64505 16.5781 28.1602 111.025 -64.1132 -105.065
lowerback 14.8011 9.83094 -4.47058
upperback -2.94844 12.5846 2.03141
thorax -12.9666 6.30593 1.33489
lowerneck 12.628 -13.022 -22.3004
upperneck -21.5007 -20.3991 53.4662
head 2.57426 -15.1111 26.9418
rclavicle -9.54166e-015 9.54166e-015
rhumerus -30.652 20.408 -104.202
rradius 19.5723
rwrist 35.6969
rhand 5.93268 -4.3627
rfingers 7.12502
rthumb 31.2592 -31.7145
lclavicle -9.54166e-015 9.54166e-015
lhumerus -27.3765 -7.7335 50.9777
lradius 43.8041
lwrist 37.8528
lhand 2.07382 -7.40596
lfingers 7.12502
lthumb 27.5752 20.594
rfemur -151.51 -44.2371 96.0656
rtibia 159.445
rfoot 36.656 16.1288
rtoes -6.85985
lfemur -11.1406 7.56605 1.1445
ltibia 17.87
lfoot -9.07171 0.460984
ltoes 1.33949
